<svg width="145" height="101" viewBox="0 0 145 101" fill="none" xmlns="http://www.w3.org/2000/svg">
<path d="M75.4443 69.6758C77.7503 69.6758 79.8991 70.0193 81.8945 70.7041C83.8881 71.39 85.6122 72.3796 87.0605 73.6729C88.5092 74.9661 89.6462 76.5327 90.4717 78.3711C91.2971 80.2095 91.71 82.2818 91.71 84.5879C91.7099 86.8005 91.3138 88.896 90.5186 90.874C89.7238 92.8537 88.6097 94.5758 87.1768 96.04C85.7428 97.5048 84.0047 98.6656 81.9639 99.5225C79.9226 100.379 77.6702 100.808 75.209 100.808C72.4044 100.808 69.9896 100.332 67.9648 99.3818C65.9386 98.4316 64.272 97.2013 62.9629 95.6895C61.6542 94.1785 60.6872 92.495 60.0645 90.6406C59.4407 88.7878 59.1299 86.9711 59.1299 85.1953C59.1299 83.6058 59.4487 81.8993 60.0879 80.0762C60.7261 78.2536 61.7082 76.571 63.0332 75.0283C64.3573 73.4861 66.0474 72.2083 68.1045 71.1953C70.1617 70.1829 72.6083 69.6758 75.4443 69.6758ZM123.777 70.2373C124.213 70.2373 124.432 70.3307 124.433 70.5156C124.433 70.7649 124.277 70.8896 123.966 70.8896C123.809 70.8896 123.536 70.9052 123.147 70.9355C122.758 70.9678 122.376 71.1085 122.002 71.3574C121.846 71.4504 121.698 71.5674 121.558 71.708C121.417 71.8477 121.253 72.051 121.066 72.3154C120.88 72.5803 120.676 72.9228 120.459 73.3438C120.24 73.7642 119.991 74.3185 119.711 75.0039C119.586 75.2843 119.376 75.7748 119.08 76.4756C118.784 77.1768 118.432 78.0109 118.028 78.9766C117.623 79.9423 117.171 81.0102 116.673 82.1787C116.175 83.3471 115.66 84.5388 115.13 85.7539C113.853 88.6837 112.77 91.1763 111.882 93.2324C110.994 95.2896 110.315 96.8174 109.848 97.8145C109.287 98.9988 108.905 99.7932 108.702 100.198C108.499 100.603 108.289 100.806 108.071 100.806C107.822 100.806 107.604 100.642 107.417 100.315C107.23 99.9884 106.934 99.3418 106.529 98.376L96.4326 74.0215C96.1832 73.4615 95.9652 73.0023 95.7783 72.6436C95.5914 72.2862 95.3886 72.0045 95.1709 71.8018C94.9528 71.5996 94.7186 71.4443 94.4697 71.335C94.2202 71.2261 93.923 71.1247 93.5811 71.0312C93.2373 70.9692 92.9187 70.93 92.623 70.9141C92.3269 70.8992 92.1164 70.8906 91.9912 70.8906C91.8676 70.8906 91.7811 70.8444 91.7344 70.751C91.6872 70.6571 91.6641 70.5797 91.6641 70.5166C91.6644 70.3304 92.0239 70.2373 92.7393 70.2373C93.2372 70.2373 93.7445 70.2453 94.2588 70.2607C94.7731 70.2766 95.2468 70.2842 95.6836 70.2842C96.1205 70.2842 96.5101 70.2922 96.8535 70.3076C97.1945 70.3235 97.4288 70.3301 97.5537 70.3301C97.7714 70.3301 98.2629 70.3155 99.0273 70.2842C99.7902 70.2534 100.577 70.2373 101.388 70.2373C102.135 70.2373 102.508 70.3299 102.509 70.5166C102.509 70.7661 102.368 70.8906 102.088 70.8906C101.838 70.8906 101.574 70.9072 101.293 70.9375C101.013 70.9693 100.78 71.016 100.592 71.0781C100.374 71.1715 100.243 71.273 100.195 71.3818C100.149 71.4912 100.124 71.6237 100.124 71.7793C100.124 72.0294 100.234 72.4423 100.452 73.0176C100.669 73.5955 100.935 74.2877 101.247 75.0977L109.006 95.1045C109.409 94.2322 109.878 93.1497 110.408 91.8555C110.938 90.5632 111.499 89.1915 112.092 87.7422C112.683 86.2935 113.283 84.8211 113.892 83.3252C114.499 81.8288 115.051 80.4192 115.55 79.0947C116.048 77.7702 116.485 76.6018 116.859 75.5889C117.233 74.5764 117.497 73.8354 117.653 73.3682C117.747 73.0572 117.833 72.7692 117.911 72.5039C117.988 72.2391 118.028 72.0286 118.028 71.873C118.028 71.717 117.988 71.5533 117.911 71.3818C117.833 71.2109 117.684 71.0939 117.467 71.0312C117.217 70.9691 116.983 70.93 116.766 70.9141C116.548 70.8992 116.314 70.8906 116.065 70.8906C115.753 70.8906 115.598 70.7822 115.598 70.5635C115.598 70.3464 115.909 70.2373 116.532 70.2373C117.342 70.2373 118.152 70.2534 118.963 70.2842C119.773 70.3155 120.303 70.3301 120.553 70.3301C120.677 70.33 121.09 70.3155 121.791 70.2842C122.492 70.2534 123.154 70.2373 123.777 70.2373ZM143.503 69.9111C143.627 69.9112 143.69 70.0357 143.69 70.2852C143.69 70.4412 143.651 70.6518 143.573 70.916C143.496 71.1809 143.424 71.5934 143.362 72.1543C143.362 72.2477 143.354 72.4119 143.339 72.6455C143.322 72.8795 143.3 73.1373 143.27 73.417C143.238 73.6977 143.214 73.9625 143.198 74.2119C143.182 74.4618 143.159 74.6482 143.129 74.7725C143.097 74.8654 143.05 74.9593 142.988 75.0527C142.925 75.1457 142.847 75.1924 142.754 75.1924C142.536 75.1922 142.427 75.0214 142.427 74.6787C142.427 74.5231 142.411 74.3123 142.381 74.0479C142.35 73.7835 142.287 73.5258 142.193 73.2764C142.13 73.1205 142.046 72.9806 141.937 72.8555C141.827 72.7312 141.663 72.6218 141.445 72.5283C141.227 72.4349 140.947 72.3495 140.604 72.2715C140.261 72.194 139.81 72.1237 139.249 72.0605C139.062 72.0297 138.671 72.0061 138.08 71.9902C137.488 71.9748 136.857 71.9598 136.187 71.9434C135.516 71.9285 134.9 71.9199 134.34 71.9199H133.312C133.155 71.92 133.078 72.0606 133.078 72.3408V83.1387C133.078 83.4189 133.156 83.5595 133.312 83.5596H136.584C137.362 83.5596 138.095 83.552 138.78 83.5361C139.466 83.5202 139.934 83.4971 140.184 83.4658C140.681 83.4037 141.086 83.3494 141.397 83.3027C141.709 83.2555 141.975 83.1235 142.193 82.9053C142.536 82.5628 142.738 82.3916 142.801 82.3916C142.957 82.3917 143.034 82.5002 143.034 82.7178C143.034 82.843 142.995 83.0771 142.918 83.4189C142.84 83.7628 142.77 84.2607 142.708 84.9141C142.645 85.3201 142.599 85.8112 142.568 86.3877C142.536 86.9638 142.521 87.3308 142.521 87.4863C142.52 87.6419 142.497 87.8056 142.45 87.9766C142.404 88.1488 142.302 88.2343 142.146 88.2344C141.96 88.2344 141.866 88.1101 141.866 87.8604C141.866 87.6735 141.858 87.4702 141.843 87.252C141.826 87.0348 141.772 86.8002 141.679 86.5508C141.616 86.2705 141.453 86.0209 141.188 85.8027C140.924 85.5856 140.386 85.4294 139.576 85.3359C139.296 85.3051 138.843 85.2735 138.221 85.2422C137.597 85.2114 136.958 85.1883 136.304 85.1719C135.65 85.157 135.042 85.1484 134.48 85.1484H133.358C133.172 85.1486 133.079 85.242 133.079 85.4287V95.5264C133.109 96.1802 133.188 96.7173 133.312 97.1387C133.437 97.5591 133.678 97.8865 134.037 98.1201C134.394 98.3537 134.886 98.5103 135.51 98.5879C136.132 98.6659 136.959 98.7041 137.986 98.7041C138.516 98.7041 139.202 98.6885 140.044 98.6572C140.886 98.6264 141.571 98.5019 142.101 98.2832C142.63 98.0348 143.042 97.7157 143.339 97.3252C143.635 96.936 143.845 96.3361 143.971 95.5254C144.064 95.1205 144.205 94.917 144.392 94.917C144.516 94.917 144.594 94.9799 144.625 95.1035C144.656 95.2293 144.672 95.3698 144.672 95.5254C144.672 95.5882 144.656 95.7827 144.625 96.1094C144.594 96.4368 144.547 96.8106 144.485 97.2314C144.423 97.6519 144.36 98.0571 144.298 98.4463C144.235 98.8364 144.173 99.1407 144.111 99.3584C144.048 99.6078 143.963 99.8022 143.854 99.9424C143.745 100.082 143.612 100.183 143.457 100.246C143.301 100.308 143.089 100.348 142.825 100.363C142.56 100.379 142.224 100.387 141.82 100.387C140.262 100.387 138.89 100.371 137.706 100.34C136.522 100.309 135.51 100.277 134.669 100.246C133.796 100.183 133.08 100.152 132.519 100.152H130.648C130.305 100.152 129.915 100.168 129.479 100.199C129.074 100.231 128.662 100.253 128.241 100.27C127.821 100.285 127.438 100.293 127.096 100.293C126.659 100.293 126.442 100.183 126.441 99.9658C126.441 99.7487 126.55 99.6387 126.769 99.6387C126.955 99.6387 127.166 99.6151 127.399 99.5684C127.634 99.5221 127.844 99.4835 128.031 99.4521C128.436 99.39 128.692 99.1719 128.802 98.7979C128.91 98.4241 129.013 97.9401 129.106 97.3486C129.231 96.5385 129.3 95.3855 129.316 93.8896C129.332 92.3936 129.34 90.68 129.34 88.748V75.6602C129.34 75.0369 129.332 74.5459 129.316 74.1865C129.3 73.8297 129.277 73.4938 129.246 73.1816C129.182 72.4976 129.059 71.983 128.872 71.6396C128.685 71.2977 128.248 71.0788 127.562 70.9854C127.407 70.9541 127.182 70.9304 126.886 70.915C126.589 70.9001 126.348 70.8916 126.161 70.8916C125.943 70.8915 125.834 70.7824 125.834 70.5645C125.834 70.3473 126.051 70.2373 126.488 70.2373C126.722 70.2373 126.964 70.2393 127.213 70.2432L128.756 70.2783C129.005 70.2822 129.247 70.2842 129.48 70.2842C129.947 70.2842 130.345 70.2922 130.672 70.3076C130.999 70.3235 131.194 70.3311 131.257 70.3311H141.073C141.478 70.3008 141.851 70.261 142.194 70.2148C142.537 70.1682 142.786 70.129 142.942 70.0977C143.035 70.0673 143.129 70.0282 143.223 69.9805C143.316 69.9338 143.41 69.9111 143.503 69.9111ZM1.30957 69.6768C1.46459 69.6769 1.6672 69.7391 1.91699 69.8633C2.16603 69.988 2.57141 70.0815 3.13184 70.1436C3.7233 70.2062 4.34737 70.2534 5.00195 70.2842C5.65636 70.3155 6.10795 70.3311 6.35742 70.3311H21.876C22.5609 70.3311 23.1387 70.3155 23.6064 70.2842C24.0735 70.2539 24.4779 70.2062 24.8213 70.1436C25.1324 70.0814 25.382 70.0352 25.5693 70.0039C25.7562 69.9736 25.8968 69.957 25.9902 69.957C26.1142 69.9574 26.1768 70.1125 26.1768 70.4238C26.1768 70.7354 26.1687 71.1252 26.1533 71.5928C26.1374 72.0594 26.1218 72.52 26.1064 72.9707C26.0905 73.4228 26.075 73.8353 26.0596 74.209C26.0437 74.5823 26.0361 74.8326 26.0361 74.957C26.0361 75.3005 25.9111 75.4717 25.6621 75.4717C25.5692 75.4716 25.4988 75.4244 25.4521 75.3311C25.4054 75.2376 25.3658 75.0507 25.335 74.7705L25.2881 74.3496C25.2568 74.0385 25.1634 73.7578 25.0078 73.5078C24.8512 73.2589 24.594 73.0332 24.2363 72.8311C23.878 72.6289 23.3792 72.4731 22.7412 72.3633C22.1021 72.2544 21.2995 72.1846 20.334 72.1533L15.1914 72.0596V88.749C15.1914 90.6813 15.1989 92.3947 15.2148 93.8906C15.2303 95.3866 15.2855 96.54 15.3789 97.3496C15.441 97.9419 15.5661 98.4176 15.7529 98.7754C15.9398 99.1336 16.3443 99.3592 16.9678 99.4531C17.2481 99.5153 17.5835 99.562 17.9736 99.5928C18.3625 99.6241 18.6511 99.6396 18.8379 99.6396C19.0556 99.6396 19.165 99.7496 19.165 99.9668C19.1649 100.184 18.9465 100.294 18.5107 100.294C17.9497 100.294 17.3807 100.286 16.8047 100.271C16.2276 100.255 15.6975 100.239 15.2148 100.224C14.7319 100.208 14.327 100.192 14 100.177C13.673 100.161 13.4772 100.153 13.415 100.153L11.6631 100.224C11.2108 100.239 10.7579 100.255 10.3066 100.271C9.85513 100.286 9.47312 100.294 9.16211 100.294C8.72533 100.294 8.50792 100.184 8.50781 99.9668C8.50781 99.7804 8.61676 99.6865 8.83496 99.6865C9.02178 99.6865 9.22427 99.6714 9.44238 99.6396C9.66041 99.6098 9.86305 99.5626 10.0498 99.5C10.4857 99.4066 10.7819 99.1721 10.9385 98.7979C11.0939 98.4242 11.203 97.9418 11.2656 97.3496C11.3591 96.54 11.4128 95.3866 11.4287 93.8906C11.4441 92.3947 11.4521 90.6813 11.4521 88.749V72.0605L5.51562 72.1543C4.20694 72.1851 3.26356 72.286 2.6875 72.457C2.11065 72.6295 1.66655 72.949 1.35547 73.416C1.10606 73.7593 0.950854 74.0165 0.888672 74.1875C0.826046 74.3585 0.763301 74.5226 0.701172 74.6787C0.638534 74.9282 0.497945 75.0527 0.280273 75.0527C0.217668 75.0527 0.155859 75.0286 0.09375 74.9814C0.031124 74.9347 0 74.8494 0 74.7246C8.22067e-05 74.63 0.0472653 74.3657 0.140625 73.9297C0.234005 73.4941 0.334097 73.0345 0.443359 72.5518C0.552706 72.0686 0.654605 71.6158 0.748047 71.1953C0.84147 70.7744 0.888672 70.5173 0.888672 70.4238C0.950745 70.2997 1.02069 70.1437 1.09863 69.957C1.17617 69.7701 1.24645 69.6768 1.30957 69.6768ZM40.7139 70.2373C42.0226 70.2373 43.355 70.3392 44.7109 70.541C46.0662 70.7443 47.289 71.2188 48.3799 71.9668C48.6288 72.1536 48.9173 72.411 49.2441 72.7373C49.5712 73.0643 49.883 73.462 50.1797 73.9297C50.4754 74.3969 50.7244 74.9195 50.9277 75.4961C51.1299 76.073 51.2314 76.7035 51.2314 77.3887C51.2314 78.8543 50.8644 80.3261 50.1328 81.8057C49.4002 83.2863 48.0833 84.8367 46.1826 86.457C47.8656 88.5769 49.4235 90.5083 50.8574 92.2539C52.2903 93.9989 53.5993 95.4942 54.7842 96.7402C55.8741 97.8625 56.7779 98.5875 57.4951 98.9141C58.2115 99.2409 58.8341 99.4369 59.3643 99.499C59.7688 99.5621 60.0816 99.5998 60.2998 99.6152C60.5174 99.6311 60.6893 99.6387 60.8145 99.6387C61.0632 99.6388 61.1875 99.7488 61.1875 99.9658C61.1874 100.091 61.1176 100.176 60.9775 100.224C60.8374 100.27 60.5798 100.293 60.2061 100.293H57.6348C56.4504 100.293 55.5546 100.231 54.9473 100.106C54.3395 99.9822 53.7704 99.7788 53.2412 99.499C52.3371 99.0313 51.4725 98.3143 50.6475 97.3486C49.8209 96.3824 48.8157 95.1513 47.6318 93.6553C47.1955 93.1255 46.7591 92.5726 46.3232 91.9961C45.8869 91.4196 45.4731 90.8748 45.084 90.3604C44.6938 89.8459 44.3368 89.371 44.0098 88.9336C43.6823 88.4978 43.4091 88.1392 43.1914 87.8594C43.0349 87.7034 42.8479 87.6251 42.6309 87.625L37.3945 87.5322C37.208 87.5323 37.1144 87.6411 37.1143 87.8584V88.7939C37.1143 90.7259 37.1218 92.432 37.1377 93.9121C37.1531 95.3923 37.2083 96.539 37.3018 97.3486C37.3639 97.9399 37.496 98.4157 37.6992 98.7744C37.9016 99.1321 38.3139 99.3577 38.9375 99.4512C39.2177 99.5138 39.5448 99.5605 39.9189 99.5908C40.2924 99.6226 40.5729 99.6377 40.7598 99.6377C40.9779 99.6377 41.0878 99.7473 41.0879 99.9648C41.0879 100.182 40.8697 100.292 40.4336 100.292C39.873 100.292 39.3035 100.285 38.7275 100.27C38.1505 100.253 37.6208 100.237 37.1377 100.223C36.6543 100.206 36.2498 100.19 35.9229 100.175C35.5958 100.159 35.4156 100.152 35.3848 100.152C34.7616 100.183 34.2398 100.206 33.8193 100.223C33.3984 100.238 32.9545 100.253 32.4873 100.27C32.0197 100.285 31.6295 100.292 31.3184 100.292C30.8815 100.292 30.6641 100.183 30.6641 99.9648C30.6641 99.7478 30.7731 99.6377 30.9912 99.6377C31.178 99.6377 31.3881 99.6221 31.6221 99.5908C31.8556 99.561 32.0661 99.5138 32.2529 99.4512C32.6574 99.3582 32.9145 99.1326 33.0244 98.7744C33.1332 98.4156 33.2347 97.9399 33.3281 97.3486C33.4524 96.539 33.5222 95.3851 33.5381 93.8896C33.5535 92.3931 33.5615 90.6795 33.5615 88.7471V75.6582C33.5615 75.0357 33.5535 74.5453 33.5381 74.1865C33.5222 73.8292 33.4996 73.4933 33.4688 73.1816C33.4061 72.4977 33.2814 71.983 33.0947 71.6396C32.9079 71.2977 32.4709 71.0788 31.7861 70.9854C31.6296 70.954 31.4032 70.9309 31.1074 70.915C30.8114 70.9001 30.5696 70.8916 30.3828 70.8916C30.165 70.8915 30.0568 70.7823 30.0566 70.5645C30.0566 70.3473 30.274 70.2373 30.7109 70.2373C30.9444 70.2373 31.1875 70.2393 31.4404 70.2432L33.0186 70.2783C33.2717 70.2822 33.5152 70.2842 33.749 70.2842C34.216 70.2842 34.6205 70.2922 34.9639 70.3076C35.3063 70.3235 35.5091 70.3311 35.5723 70.3311C35.6652 70.3311 35.9301 70.3235 36.3662 70.3076C36.8025 70.2922 37.2852 70.2842 37.8154 70.2842C38.3446 70.2842 38.8826 70.2766 39.4277 70.2607C39.9729 70.2453 40.4017 70.2373 40.7139 70.2373ZM75.21 71.1709C73.4967 71.1709 71.9151 71.444 70.4658 71.9893C69.0165 72.535 67.7694 73.3443 66.7256 74.4199C65.6814 75.495 64.8639 76.8441 64.2725 78.4639C63.6801 80.0841 63.3838 81.9691 63.3838 84.1191C63.3838 86.4263 63.7107 88.506 64.3652 90.3604C65.0198 92.2148 65.9316 93.7953 67.1006 95.1045C68.2691 96.4132 69.6398 97.4183 71.2139 98.1191C72.7864 98.8204 74.5091 99.1719 76.3789 99.1719C77.3138 99.1719 78.4124 99.0077 79.6738 98.6807C80.9362 98.3531 82.1509 97.7068 83.3203 96.7412C84.4893 95.7755 85.4779 94.4109 86.2881 92.6504C87.0981 90.89 87.5044 88.5766 87.5039 85.709C87.5039 83.3416 87.1685 81.2445 86.498 79.4219C85.8281 77.599 84.9251 76.0799 83.7881 74.8643C82.6504 73.6495 81.341 72.7297 79.8613 72.1064C78.3808 71.4832 76.8302 71.1709 75.21 71.1709ZM40.3867 71.6387C39.763 71.6387 39.1714 71.6623 38.6104 71.71C38.0497 71.7567 37.6591 71.8109 37.4414 71.873C37.2233 71.9973 37.1143 72.153 37.1143 72.3398V85.1016C37.1143 85.3195 37.2079 85.4915 37.3945 85.6152C37.55 85.7091 37.7843 85.7865 38.0957 85.8486C38.4068 85.9122 38.7739 85.975 39.1943 86.0371C39.6147 86.0997 40.0592 86.1455 40.5264 86.1758C40.9941 86.2081 41.462 86.2236 41.9297 86.2236C42.4276 86.2236 42.942 86.193 43.4717 86.1299C44.0015 86.0682 44.5157 85.8654 45.0146 85.5225C45.7308 85.0547 46.3233 84.3071 46.791 83.2783C47.2582 82.25 47.4912 80.9721 47.4912 79.4453C47.4912 76.9532 46.8606 75.0278 45.5986 73.6729C44.3362 72.3166 42.5988 71.6387 40.3867 71.6387ZM85.834 22.4854C80.2912 25.5858 75.1234 34.5287 73.0566 46.2549C71.6674 54.1413 65.2939 65.4826 51.1797 63.8906C48.4874 63.8041 46.1223 63.3173 44.084 62.4336C48.008 63.1816 52.7002 63.3338 56.9717 61.5088C57 61.5018 57.0268 61.4977 57.0557 61.4902C61.0148 59.7701 63.529 56.8353 65.2656 53.4756C65.9321 51.5909 66.2695 49.2556 66.2695 46.46C66.2695 43.7233 65.8823 41.3003 65.1084 39.1934C64.3335 37.0865 63.2887 35.3314 61.9746 33.9268C60.6595 32.5222 59.1468 31.46 57.4365 30.7393C55.7257 30.0191 53.9333 29.6582 52.0615 29.6582C50.0804 29.6582 48.2526 29.9738 46.5781 30.6035C44.9032 31.2342 43.4621 32.1705 42.2559 33.4131C41.0492 34.6556 40.1033 36.2137 39.4199 38.0859C38.735 39.9593 38.3936 42.1379 38.3936 44.623C38.3936 47.2886 38.7723 49.6928 39.5283 51.835C40.2848 53.9776 41.3376 55.8059 42.6885 57.3184C44.0388 58.8307 45.6234 59.9921 47.4424 60.8027C47.7127 60.9235 47.9883 61.0319 48.2666 61.1348C48.0137 61.1382 47.7598 61.1406 47.502 61.1406C47.562 61.1262 47.6191 61.114 47.6797 61.0996C40.7422 61.4962 36.8249 56.5416 35.1748 53.7354C34.9442 53.2225 34.7385 52.6964 34.5576 52.1592C33.837 50.0166 33.4775 47.9179 33.4775 45.8652C33.4776 44.0284 33.8465 42.0569 34.585 39.9502C35.3226 37.8433 36.4574 35.8981 37.9883 34.1152C39.5186 32.3324 41.4733 30.8565 43.8506 29.6855C46.2272 28.5157 49.0534 27.9297 52.3311 27.9297C54.9961 27.9297 57.4819 28.3264 59.7871 29.1182C61.7059 29.7782 63.4042 30.6855 64.8867 31.832C65.346 32.1387 65.8133 32.4664 66.292 32.8203C69.9859 36.1911 71.9603 34.0044 72.5215 33.1719C72.5627 33.1038 72.6043 33.0392 72.6455 32.9727C72.6757 32.9201 72.6924 32.8887 72.6924 32.8887L72.6758 32.9258C78.919 22.8952 85.834 22.4854 85.834 22.4854ZM17.666 8.47656C19.1039 8.47656 20.5001 8.55959 21.8564 8.72559C23.2113 8.89158 24.3316 9.08598 25.2168 9.30664C25.9347 9.47259 26.4746 9.5693 26.835 9.59668C27.1938 9.62551 27.5122 9.63867 27.79 9.63867C28.2872 9.63876 28.536 9.8045 28.5361 10.1357C28.5361 10.3017 28.4804 10.9798 28.3701 12.1689C28.2588 13.3588 28.2041 15.1705 28.2041 17.6045C28.2041 18.6553 28.01 19.1803 27.624 19.1807C27.3462 19.1807 27.1802 19.0976 27.126 18.9316C27.0703 18.7657 27.0146 18.5453 26.96 18.2676C26.9043 17.8258 26.7655 17.2311 26.5449 16.4844C26.3232 15.7373 26.101 15.1704 25.8809 14.7832C25.769 14.5625 25.5204 14.2577 25.1338 13.8701C24.7462 13.4841 24.1798 13.0965 23.4336 12.709C22.6866 12.3228 21.7454 11.9907 20.6123 11.7129C19.4777 11.4371 18.0813 11.2979 16.4219 11.2979C13.7662 11.2979 11.4838 11.9488 9.5752 13.248C7.66732 14.5482 6.71298 16.4428 6.71289 18.9316C6.71289 20.0384 6.86433 21.0621 7.16895 22.002C7.47213 22.9433 7.99955 23.8692 8.74609 24.7822C9.49311 25.6947 10.4601 26.6364 11.6504 27.6035C12.8392 28.5717 14.3474 29.6647 16.1729 30.8809L18.2471 32.291C20.4589 33.7851 22.3262 35.2369 23.8486 36.6475C25.3695 38.058 26.5997 39.442 27.541 40.7969C28.4808 42.1526 29.1582 43.5349 29.5732 44.9453C29.9883 46.3564 30.1953 47.8092 30.1953 49.3018C30.1953 51.4047 29.7109 53.507 28.7432 55.6084C27.7749 57.7117 25.9914 59.6199 23.3916 61.334C21.8424 62.33 20.0165 62.9932 17.915 63.3252C15.8121 63.6572 13.7655 63.8232 11.7744 63.8232C10.0588 63.8232 8.23365 63.6845 6.29785 63.4082C4.36106 63.1304 2.64732 62.6342 1.15332 61.915C0.655794 61.6382 0.350577 61.3628 0.240234 61.085C0.128899 60.8086 0.0742188 60.2002 0.0742188 59.2588C0.074227 57.489 0.128908 55.9535 0.240234 54.6533C0.350545 53.3544 0.433595 52.4003 0.489258 51.791C0.489258 51.0171 0.682627 50.6289 1.07031 50.6289C1.5126 50.629 1.73438 50.9068 1.73438 51.459C1.73438 51.7368 1.74707 52.11 1.77539 52.5791C1.80273 53.0497 1.87158 53.5333 1.9834 54.0312C2.25924 55.3046 2.78427 56.3834 3.55957 57.2676C4.33339 58.1527 5.26042 58.8731 6.33887 59.4248C7.41792 59.9785 8.58013 60.3789 9.8252 60.6279C11.0696 60.8769 12.2995 61.001 13.5166 61.001C17.1677 61.001 19.9058 60.1029 21.7314 58.3047C23.557 56.5075 24.4707 54.2805 24.4707 51.626C24.4707 50.3536 24.29 49.2187 23.9307 48.2227C23.5703 47.2272 23.0179 46.2728 22.2715 45.3604C21.5246 44.4475 20.5704 43.5222 19.4092 42.5811C18.2476 41.6412 16.8632 40.562 15.2598 39.3447L11.9404 36.8555C8.01245 33.924 5.28851 31.2826 3.76758 28.9307C2.24567 26.5802 1.48535 24.1879 1.48535 21.7529C1.48538 19.7074 1.87172 17.8538 2.64746 16.1943C3.42134 14.5342 4.52691 13.1372 5.96582 12.0029C7.40366 10.8698 9.10471 9.99899 11.0693 9.38965C13.0321 8.78129 15.2311 8.47657 17.666 8.47656ZM93.4072 29.127C93.9383 29.127 94.2029 29.2512 94.2031 29.498C94.2031 29.7455 94.062 29.87 93.7793 29.8701H93.249C93.1074 29.8701 92.8945 29.905 92.6123 29.9756C92.011 30.0815 91.6138 30.3391 91.4189 30.7451C91.2247 31.1521 91.0921 31.7264 91.0215 32.4688C90.9857 32.8226 90.9588 33.2038 90.9414 33.6094C90.923 34.0169 90.915 34.574 90.915 35.2812V48.4902C90.915 50.1173 91.0023 51.5227 91.1797 52.707C91.3556 53.8918 91.5953 54.9184 91.8955 55.7842C92.1957 56.6514 92.559 57.3755 92.9834 57.959C93.4074 58.542 93.8668 59.0652 94.3623 59.5244C95.4939 60.5506 96.5988 61.2135 97.6768 61.5146C98.7557 61.8148 99.9668 61.9648 101.311 61.9648C102.76 61.9648 104.122 61.6738 105.396 61.0898C106.669 60.5063 107.711 59.737 108.525 58.7812C109.621 57.4737 110.337 55.9093 110.674 54.0879C111.009 52.2668 111.178 50.1881 111.178 47.8535V37.9336C111.178 36.838 111.168 35.9446 111.151 35.2549C111.133 34.5655 111.116 34.0169 111.099 33.6094C111.081 33.204 111.072 32.8235 111.072 32.4697C111.037 31.7624 110.913 31.1959 110.7 30.7715C110.488 30.3477 109.992 30.0824 109.216 29.9766C109.037 29.9413 108.782 29.9149 108.446 29.8965C108.11 29.8791 107.837 29.8701 107.624 29.8701C107.377 29.8701 107.253 29.7464 107.253 29.499C107.253 29.252 107.5 29.1279 107.995 29.1279C108.526 29.1279 109.074 29.1369 109.64 29.1543C110.205 29.1727 110.718 29.1807 111.179 29.1807C111.673 29.1807 112.089 29.1896 112.426 29.207C112.761 29.2254 112.964 29.2334 113.035 29.2334C113.212 29.2334 113.734 29.2164 114.601 29.1807C115.466 29.1464 116.253 29.1279 116.962 29.1279C117.456 29.128 117.704 29.252 117.704 29.499C117.704 29.7464 117.579 29.8701 117.333 29.8701H116.802C116.66 29.8702 116.448 29.9061 116.166 29.9766C115.529 30.1182 115.113 30.3829 114.919 30.7715C114.724 31.1612 114.592 31.7272 114.521 32.4697C114.486 32.8236 114.468 33.2123 114.468 33.6367V47.0049C114.468 48.2424 114.415 49.4898 114.31 50.7441C114.203 52.0001 113.991 53.2208 113.673 54.4053C113.354 55.5902 112.912 56.7133 112.347 57.7744C111.781 58.8349 111.038 59.7544 110.118 60.5322C109.269 61.2748 108.411 61.8587 107.545 62.2832C106.678 62.7076 105.829 63.0351 104.999 63.2646C104.168 63.4942 103.355 63.6437 102.56 63.7158C101.764 63.7864 101.029 63.8213 100.357 63.8213C99.9682 63.8213 99.4022 63.8033 98.6592 63.7686C97.9167 63.7333 97.0859 63.6092 96.166 63.3965C95.2461 63.1848 94.3002 62.8668 93.3281 62.4424C92.3549 62.0179 91.4616 61.417 90.6484 60.6387C90.0824 60.1084 89.5521 59.4978 89.0576 58.8086C88.5621 58.1187 88.1291 57.315 87.7578 56.3945C87.387 55.475 87.0936 54.3963 86.8818 53.1582C86.6697 51.9207 86.5635 50.471 86.5635 48.8086V35.2812C86.5635 34.574 86.554 34.0169 86.5371 33.6094C86.5187 33.2038 86.4923 32.8226 86.458 32.4688C86.3869 31.7617 86.2454 31.1959 86.0332 30.7715C85.8215 30.3475 85.3252 30.0815 84.5479 29.9756C84.3699 29.9403 84.1146 29.9139 83.7783 29.8955C83.4427 29.8781 83.1696 29.8701 82.957 29.8701C82.7095 29.8701 82.585 29.7456 82.585 29.498C82.5852 29.2513 82.8325 29.127 83.3281 29.127C83.858 29.127 84.4155 29.1359 84.999 29.1533C85.5825 29.1717 86.1212 29.1797 86.6172 29.1797C87.148 29.1797 87.5989 29.1896 87.9707 29.207C88.3412 29.2254 88.579 29.2334 88.6855 29.2334C88.7909 29.2334 89.0303 29.2254 89.4014 29.207C89.7731 29.1896 90.1883 29.1797 90.6484 29.1797C91.143 29.1797 91.6387 29.1717 92.1348 29.1533C92.6296 29.1359 93.0534 29.127 93.4072 29.127ZM133.276 29.3652C133.771 29.3652 134.02 29.4893 134.02 29.7363C134.019 29.9484 133.894 30.0547 133.647 30.0547C133.471 30.0547 133.24 30.0637 132.958 30.0811C132.675 30.0989 132.392 30.1254 132.109 30.1602C131.402 30.3018 130.951 30.5584 130.757 30.9297C130.562 31.3015 130.429 31.894 130.358 32.707C130.358 33.0608 130.35 33.4417 130.332 33.8477C130.314 34.2547 130.306 34.8114 130.306 35.5186V50.4785C130.306 52.1411 130.314 53.5646 130.332 54.749C130.35 55.9342 130.393 56.9236 130.464 57.7197C130.535 58.5159 130.633 59.1433 130.757 59.6035C130.88 60.0627 131.049 60.3986 131.261 60.6113C131.65 61.001 132.322 61.2745 133.276 61.4336C134.232 61.5926 135.629 61.6709 137.468 61.6709C138.705 61.6709 139.81 61.6105 140.783 61.4863C141.756 61.3631 142.526 60.9654 143.092 60.293C143.374 59.9402 143.612 59.5423 143.808 59.0996C144.001 58.6577 144.134 58.2063 144.205 57.7461C144.276 57.3577 144.435 57.1632 144.683 57.1631C144.895 57.1631 145.001 57.3933 145 57.8525C145 57.9584 144.982 58.1981 144.948 58.5693C144.912 58.941 144.859 59.3474 144.789 59.7891C144.718 60.2318 144.647 60.691 144.576 61.168C144.505 61.6453 144.417 62.0423 144.312 62.3613C144.241 62.6439 144.161 62.8654 144.072 63.0244C143.984 63.1829 143.842 63.299 143.648 63.3691C143.454 63.4397 143.178 63.4925 142.825 63.5283C142.471 63.5631 141.976 63.5811 141.34 63.5811C138.086 63.5811 135.381 63.5287 133.225 63.4229C132.163 63.3871 131.225 63.3607 130.412 63.3428C129.598 63.3249 128.838 63.3164 128.131 63.3164H127.441C127.088 63.3164 126.68 63.3334 126.221 63.3682C125.725 63.4034 125.248 63.4299 124.789 63.4482C124.329 63.4656 123.905 63.4746 123.516 63.4746C123.02 63.4746 122.772 63.3505 122.772 63.1035C122.773 62.8568 122.896 62.7326 123.144 62.7324C123.355 62.7324 123.595 62.7154 123.859 62.6797C124.125 62.6449 124.364 62.5921 124.576 62.5205C125.035 62.4146 125.327 62.1575 125.451 61.751C125.575 61.3444 125.69 60.8056 125.796 60.1328C125.937 59.2138 126.017 57.9052 126.034 56.208C126.052 54.5101 126.062 52.5655 126.062 50.3721V35.5186C126.062 34.8114 126.052 34.2547 126.034 33.8477C126.017 33.4417 125.989 33.0609 125.955 32.707C125.884 31.9297 125.743 31.3457 125.53 30.9561C125.318 30.5676 124.823 30.3197 124.045 30.2139C123.868 30.1786 123.612 30.1517 123.276 30.1338C122.941 30.1159 122.667 30.1074 122.455 30.1074C122.207 30.1074 122.083 29.9841 122.083 29.7363C122.083 29.4893 122.33 29.3653 122.825 29.3652C123.355 29.3652 123.921 29.3732 124.522 29.3906C125.123 29.409 125.672 29.418 126.168 29.418C126.698 29.418 127.14 29.4269 127.494 29.4443C127.847 29.4627 128.059 29.4707 128.131 29.4707C128.166 29.4707 128.397 29.4627 128.82 29.4443C129.245 29.4269 129.722 29.418 130.253 29.418C130.784 29.418 131.331 29.409 131.897 29.3906C132.463 29.3732 132.923 29.3652 133.276 29.3652ZM69.3447 19.667C72.3806 19.667 74.8418 22.1272 74.8418 25.1631C74.8416 28.1988 72.3805 30.6592 69.3447 30.6592C66.3097 30.6589 63.8488 28.1986 63.8486 25.1631C63.8486 22.1274 66.3096 19.6672 69.3447 19.667ZM43.582 14.3496C60.2997 10.4375 60.5928 26.832 60.5928 26.832C60.5928 26.832 57.7775 19.7645 50.8633 17.4697C52.4031 18.6566 56.5079 21.353 57.4717 24.5986C57.4515 24.6087 52.7188 26.9556 48.9385 20.4131C46.365 15.9589 44.2571 14.5466 43.582 14.3496ZM82.1768 21.377C82.2029 21.3111 87.1662 8.87659 100.86 17.5605C99.9567 17.7822 98.3563 18.9074 96.4795 20.0879C94.4983 21.3349 89.1974 24.25 85.6104 20.6348C87.0403 19.7501 91.8883 17.6505 96.21 17.5645C93.7742 17.1148 87.0479 17.9476 82.1768 21.377ZM88.0908 7.5293C87.5611 7.8715 85.9192 10.1658 84.6709 13.2666C82.3315 19.0776 77.9607 17.5235 77.9414 17.5166C80.0839 13.9045 81.1622 12.1493 82.9111 10.5723C80.8074 11.7945 78.2745 15.1289 76.8535 17.1543C75.2981 7.30348 86.4227 7.57051 88.0908 7.5293ZM56.0029 5.1709C57.6056 5.63272 68.8537 9.07429 65.0703 17.3965C64.208 15.0769 62.5196 11.244 60.4082 9.72949C61.2278 10.977 62.5162 12.5616 63.9258 17.4717C63.8774 17.4773 59.3585 17.988 57.9609 11.9014C57.2269 8.70478 56.4284 5.63558 56.0029 5.1709ZM69.5645 0C71.0865 1.28449 79.9851 9.57101 71.8096 16.7959C71.9999 13.849 72.1423 8.66777 71.0967 5.95801C71.382 7.71704 71.8958 11.0284 70.7988 16.3574C70.7542 16.3423 65.394 14.5146 67.4355 7.33691C68.6766 2.97521 69.8024 0.713379 69.5645 0Z" fill="#953F37"/>
</svg>
